<mxfile host="app.diagrams.net" modified="2021-03-20T16:35:31.025Z" agent="5.0 (Windows NT 10.0; Win64; x64) AppleWebKit/537.36 (KHTML, like Gecko) Chrome/89.0.4389.82 Safari/537.36" etag="D0p4dAxEI0hwUGUFXZhY" version="14.4.8" type="github">
  <diagram id="DZ1lq4XpypA19n6wxQC9" name="第 1 页">
    <mxGraphModel dx="1422" dy="706" grid="0" gridSize="10" guides="1" tooltips="1" connect="1" arrows="1" fold="1" page="1" pageScale="1" pageWidth="827" pageHeight="1169" math="0" shadow="1">
      <root>
        <mxCell id="0" />
        <mxCell id="1" parent="0" />
        <mxCell id="R3XybojP-OOXXn649qvZ-20" value="" style="group" vertex="1" connectable="0" parent="1">
          <mxGeometry x="390" y="120" width="120" height="164" as="geometry" />
        </mxCell>
        <mxCell id="R3XybojP-OOXXn649qvZ-8" value="my_data_list" style="swimlane;fontStyle=0;childLayout=stackLayout;horizontal=1;startSize=26;fillColor=#d5e8d4;horizontalStack=0;resizeParent=1;resizeParentMax=0;resizeLast=0;collapsible=1;marginBottom=0;fontSize=14;strokeColor=#82b366;" vertex="1" parent="R3XybojP-OOXXn649qvZ-20">
          <mxGeometry y="60" width="120" height="104" as="geometry" />
        </mxCell>
        <mxCell id="R3XybojP-OOXXn649qvZ-9" value="val: 1" style="text;strokeColor=#314354;fillColor=#647687;align=left;verticalAlign=top;spacingLeft=4;spacingRight=4;overflow=hidden;rotatable=0;points=[[0,0.5],[1,0.5]];portConstraint=eastwest;fontColor=#ffffff;fontSize=14;" vertex="1" parent="R3XybojP-OOXXn649qvZ-8">
          <mxGeometry y="26" width="120" height="26" as="geometry" />
        </mxCell>
        <mxCell id="R3XybojP-OOXXn649qvZ-10" value="list: next" style="text;strokeColor=#314354;fillColor=#647687;align=left;verticalAlign=top;spacingLeft=4;spacingRight=4;overflow=hidden;rotatable=0;points=[[0,0.5],[1,0.5]];portConstraint=eastwest;fontColor=#ffffff;fontSize=14;" vertex="1" parent="R3XybojP-OOXXn649qvZ-8">
          <mxGeometry y="52" width="120" height="26" as="geometry" />
        </mxCell>
        <mxCell id="R3XybojP-OOXXn649qvZ-17" style="edgeStyle=orthogonalEdgeStyle;curved=1;rounded=0;orthogonalLoop=1;jettySize=auto;html=1;exitX=1;exitY=0.5;exitDx=0;exitDy=0;entryX=0;entryY=0.5;entryDx=0;entryDy=0;fontSize=14;" edge="1" parent="R3XybojP-OOXXn649qvZ-8" source="R3XybojP-OOXXn649qvZ-11" target="R3XybojP-OOXXn649qvZ-10">
          <mxGeometry relative="1" as="geometry">
            <Array as="points">
              <mxPoint x="140" y="91" />
              <mxPoint x="140" y="130" />
              <mxPoint x="-20" y="130" />
              <mxPoint x="-20" y="65" />
            </Array>
          </mxGeometry>
        </mxCell>
        <mxCell id="R3XybojP-OOXXn649qvZ-19" value="Prev" style="edgeLabel;html=1;align=center;verticalAlign=middle;resizable=0;points=[];fontSize=14;" vertex="1" connectable="0" parent="R3XybojP-OOXXn649qvZ-17">
          <mxGeometry x="-0.2303" y="-2" relative="1" as="geometry">
            <mxPoint as="offset" />
          </mxGeometry>
        </mxCell>
        <mxCell id="R3XybojP-OOXXn649qvZ-11" value="list: prev" style="text;strokeColor=#314354;fillColor=#647687;align=left;verticalAlign=top;spacingLeft=4;spacingRight=4;overflow=hidden;rotatable=0;points=[[0,0.5],[1,0.5]];portConstraint=eastwest;fontColor=#ffffff;fontSize=14;" vertex="1" parent="R3XybojP-OOXXn649qvZ-8">
          <mxGeometry y="78" width="120" height="26" as="geometry" />
        </mxCell>
        <mxCell id="R3XybojP-OOXXn649qvZ-16" style="edgeStyle=orthogonalEdgeStyle;curved=1;rounded=0;orthogonalLoop=1;jettySize=auto;html=1;exitX=1;exitY=0.5;exitDx=0;exitDy=0;entryX=0;entryY=0.5;entryDx=0;entryDy=0;fontSize=14;" edge="1" parent="R3XybojP-OOXXn649qvZ-8" source="R3XybojP-OOXXn649qvZ-10" target="R3XybojP-OOXXn649qvZ-10">
          <mxGeometry relative="1" as="geometry">
            <Array as="points">
              <mxPoint x="150" y="65" />
              <mxPoint x="150" y="-20" />
              <mxPoint x="-30" y="-20" />
              <mxPoint x="-30" y="65" />
            </Array>
          </mxGeometry>
        </mxCell>
        <mxCell id="R3XybojP-OOXXn649qvZ-18" value="Next" style="edgeLabel;html=1;align=center;verticalAlign=middle;resizable=0;points=[];fontSize=14;" vertex="1" connectable="0" parent="R3XybojP-OOXXn649qvZ-16">
          <mxGeometry x="-0.3463" y="12" relative="1" as="geometry">
            <mxPoint as="offset" />
          </mxGeometry>
        </mxCell>
        <mxCell id="R3XybojP-OOXXn649qvZ-12" value="节点1" style="text;html=1;align=center;verticalAlign=middle;resizable=0;points=[];autosize=1;fontSize=14;" vertex="1" parent="R3XybojP-OOXXn649qvZ-20">
          <mxGeometry x="35" width="50" height="20" as="geometry" />
        </mxCell>
        <mxCell id="R3XybojP-OOXXn649qvZ-21" value="list_head" style="swimlane;fontStyle=0;childLayout=stackLayout;horizontal=1;startSize=26;fillColor=#e1d5e7;horizontalStack=0;resizeParent=1;resizeParentMax=0;resizeLast=0;collapsible=1;marginBottom=0;fontSize=14;strokeColor=#9673a6;" vertex="1" parent="1">
          <mxGeometry x="80" y="206" width="140" height="78" as="geometry" />
        </mxCell>
        <mxCell id="R3XybojP-OOXXn649qvZ-26" value="Next" style="edgeStyle=orthogonalEdgeStyle;curved=1;rounded=0;orthogonalLoop=1;jettySize=auto;html=1;exitX=1;exitY=0.5;exitDx=0;exitDy=0;entryX=1;entryY=0;entryDx=0;entryDy=0;fontSize=14;" edge="1" parent="R3XybojP-OOXXn649qvZ-21" source="R3XybojP-OOXXn649qvZ-22" target="R3XybojP-OOXXn649qvZ-21">
          <mxGeometry relative="1" as="geometry">
            <Array as="points">
              <mxPoint x="160" y="39" />
              <mxPoint x="160" />
            </Array>
          </mxGeometry>
        </mxCell>
        <mxCell id="R3XybojP-OOXXn649qvZ-22" value="next" style="text;strokeColor=#314354;fillColor=#647687;align=left;verticalAlign=top;spacingLeft=4;spacingRight=4;overflow=hidden;rotatable=0;points=[[0,0.5],[1,0.5]];portConstraint=eastwest;fontColor=#ffffff;fontSize=14;" vertex="1" parent="R3XybojP-OOXXn649qvZ-21">
          <mxGeometry y="26" width="140" height="26" as="geometry" />
        </mxCell>
        <mxCell id="R3XybojP-OOXXn649qvZ-27" value="Prev" style="edgeStyle=orthogonalEdgeStyle;curved=1;rounded=0;orthogonalLoop=1;jettySize=auto;html=1;exitX=0;exitY=0.5;exitDx=0;exitDy=0;entryX=0;entryY=0.25;entryDx=0;entryDy=0;fontSize=14;" edge="1" parent="R3XybojP-OOXXn649qvZ-21" source="R3XybojP-OOXXn649qvZ-23" target="R3XybojP-OOXXn649qvZ-21">
          <mxGeometry relative="1" as="geometry" />
        </mxCell>
        <mxCell id="R3XybojP-OOXXn649qvZ-23" value="prev" style="text;strokeColor=#314354;fillColor=#647687;align=left;verticalAlign=top;spacingLeft=4;spacingRight=4;overflow=hidden;rotatable=0;points=[[0,0.5],[1,0.5]];portConstraint=eastwest;fontColor=#ffffff;fontSize=14;" vertex="1" parent="R3XybojP-OOXXn649qvZ-21">
          <mxGeometry y="52" width="140" height="26" as="geometry" />
        </mxCell>
        <mxCell id="R3XybojP-OOXXn649qvZ-25" value="listHead" style="text;html=1;align=center;verticalAlign=middle;resizable=0;points=[];autosize=1;fontSize=14;" vertex="1" parent="1">
          <mxGeometry x="115" y="160" width="70" height="20" as="geometry" />
        </mxCell>
      </root>
    </mxGraphModel>
  </diagram>
</mxfile>
